<svg xmlns="http://www.w3.org/2000/svg" xmlns:xlink="http://www.w3.org/1999/xlink" width="500" zoomAndPan="magnify" viewBox="0 0 375 374.999991" height="500" preserveAspectRatio="xMidYMid meet" version="1.0"><defs><clipPath id="497edf77a7"><path d="M 19.539062 20 L 23 20 L 23 23 L 19.539062 23 Z M 19.539062 20 " clip-rule="nonzero"/></clipPath><clipPath id="a5f74e0545"><path d="M 69 20 L 72.039062 20 L 72.039062 23 L 69 23 Z M 69 20 " clip-rule="nonzero"/></clipPath><clipPath id="18d35c18d6"><path d="M 38 7.410156 L 54 7.410156 L 54 13 L 38 13 Z M 38 7.410156 " clip-rule="nonzero"/></clipPath><clipPath id="bf487c7204"><path d="M 48 29 L 51 29 L 51 31.410156 L 48 31.410156 Z M 48 29 " clip-rule="nonzero"/></clipPath><clipPath id="7b227e5265"><path d="M 45 30 L 49 30 L 49 31.410156 L 45 31.410156 Z M 45 30 " clip-rule="nonzero"/></clipPath><clipPath id="79816bec43"><path d="M 43 30 L 46 30 L 46 31.410156 L 43 31.410156 Z M 43 30 " clip-rule="nonzero"/></clipPath><clipPath id="9e1669056d"><path d="M 40 29 L 44 29 L 44 31.410156 L 40 31.410156 Z M 40 29 " clip-rule="nonzero"/></clipPath></defs><path fill="#ed5b2d" d="M 22.925781 23.988281 L 21.9375 23.988281 C 21.503906 23.988281 21.195312 24.339844 21.246094 24.773438 C 21.300781 25.210938 21.699219 25.5625 22.132812 25.5625 L 23.125 25.5625 C 23.558594 25.5625 23.867188 25.207031 23.8125 24.773438 C 23.757812 24.339844 23.363281 23.988281 22.929688 23.988281 Z M 22.925781 23.988281 " fill-opacity="1" fill-rule="evenodd"/><path fill="#ed5b2d" d="M 25.945312 28.265625 C 25.507812 28.265625 25.199219 28.617188 25.253906 29.050781 C 25.304688 29.484375 25.703125 29.835938 26.140625 29.835938 L 27.128906 29.835938 C 27.5625 29.835938 27.871094 29.484375 27.816406 29.050781 C 27.761719 28.617188 27.367188 28.265625 26.933594 28.265625 Z M 25.945312 28.265625 " fill-opacity="1" fill-rule="evenodd"/><g clip-path="url(#497edf77a7)"><path fill="#ed5b2d" d="M 22.148438 21.710938 C 22.09375 21.273438 21.699219 20.921875 21.265625 20.921875 L 20.273438 20.921875 C 19.839844 20.921875 19.53125 21.277344 19.585938 21.710938 C 19.636719 22.144531 20.035156 22.496094 20.46875 22.496094 L 21.460938 22.496094 C 21.894531 22.496094 22.203125 22.144531 22.148438 21.710938 Z M 22.148438 21.710938 " fill-opacity="1" fill-rule="evenodd"/></g><path fill="#ed5b2d" d="M 25.378906 19.109375 L 24.390625 19.109375 C 23.953125 19.109375 23.648438 19.457031 23.699219 19.894531 C 23.753906 20.328125 24.148438 20.679688 24.585938 20.679688 L 25.574219 20.679688 C 26.011719 20.679688 26.320312 20.328125 26.265625 19.894531 C 26.210938 19.460938 25.816406 19.109375 25.382812 19.109375 Z M 25.378906 19.109375 " fill-opacity="1" fill-rule="evenodd"/><path fill="#ed5b2d" d="M 65.011719 16.945312 C 64.578125 16.945312 64.265625 16.59375 64.320312 16.160156 C 64.375 15.726562 64.769531 15.371094 65.203125 15.371094 L 66.199219 15.371094 C 66.632812 15.371094 66.9375 15.726562 66.886719 16.160156 C 66.832031 16.59375 66.4375 16.945312 66 16.945312 Z M 65.011719 16.945312 " fill-opacity="1" fill-rule="evenodd"/><path fill="#ed5b2d" d="M 68.886719 23.988281 L 69.878906 23.988281 C 70.3125 23.988281 70.621094 24.339844 70.566406 24.773438 C 70.511719 25.210938 70.117188 25.5625 69.683594 25.5625 L 68.691406 25.5625 C 68.257812 25.5625 67.949219 25.207031 68 24.773438 C 68.058594 24.339844 68.453125 23.988281 68.886719 23.988281 Z M 68.886719 23.988281 " fill-opacity="1" fill-rule="evenodd"/><path fill="#ed5b2d" d="M 65.875 28.265625 C 66.308594 28.265625 66.617188 28.617188 66.5625 29.050781 C 66.511719 29.484375 66.113281 29.835938 65.679688 29.835938 L 64.6875 29.835938 C 64.253906 29.835938 63.945312 29.484375 64 29.050781 C 64.054688 28.617188 64.449219 28.265625 64.882812 28.265625 Z M 65.875 28.265625 " fill-opacity="1" fill-rule="evenodd"/><g clip-path="url(#a5f74e0545)"><path fill="#ed5b2d" d="M 69.667969 21.710938 C 69.722656 21.273438 70.117188 20.921875 70.554688 20.921875 L 71.546875 20.921875 C 71.980469 20.921875 72.285156 21.277344 72.230469 21.710938 C 72.179688 22.144531 71.78125 22.496094 71.347656 22.496094 L 70.359375 22.496094 C 69.925781 22.496094 69.613281 22.144531 69.667969 21.710938 Z M 69.667969 21.710938 " fill-opacity="1" fill-rule="evenodd"/></g><path fill="#ed5b2d" d="M 66.4375 19.109375 L 67.425781 19.109375 C 67.863281 19.109375 68.171875 19.457031 68.117188 19.894531 C 68.066406 20.328125 67.667969 20.679688 67.230469 20.679688 L 66.242188 20.679688 C 65.804688 20.679688 65.496094 20.328125 65.550781 19.894531 C 65.605469 19.460938 66.003906 19.109375 66.4375 19.109375 L 66.441406 19.109375 Z M 66.4375 19.109375 " fill-opacity="1" fill-rule="evenodd"/><path fill="#ed5b2d" d="M 26.808594 16.945312 C 27.242188 16.945312 27.550781 16.59375 27.496094 16.160156 C 27.441406 15.726562 27.046875 15.371094 26.613281 15.371094 L 25.621094 15.371094 C 25.1875 15.371094 24.878906 15.726562 24.929688 16.160156 C 24.984375 16.59375 25.382812 16.945312 25.816406 16.945312 Z M 26.808594 16.945312 " fill-opacity="1" fill-rule="evenodd"/><g clip-path="url(#18d35c18d6)"><path fill="#291b25" d="M 38.296875 9.890625 L 39.664062 12.261719 C 39.679688 12.285156 39.828125 12.230469 40.050781 12.121094 L 40.1875 12.363281 C 40.574219 12.058594 40.984375 11.785156 41.414062 11.542969 L 41.324219 11.386719 C 41.527344 11.25 41.652344 11.148438 41.636719 11.121094 L 40.265625 8.746094 L 40.265625 8.75 C 40.203125 8.722656 39.753906 8.933594 39.230469 9.230469 C 38.710938 9.535156 38.308594 9.816406 38.296875 9.882812 Z M 51.921875 8.746094 L 50.550781 11.121094 C 50.539062 11.148438 50.660156 11.25 50.863281 11.386719 L 50.773438 11.542969 C 51.203125 11.785156 51.613281 12.058594 51.996094 12.363281 L 52.136719 12.121094 C 52.359375 12.230469 52.507812 12.285156 52.523438 12.261719 L 53.894531 9.882812 L 53.890625 9.882812 C 53.871094 9.726562 52.074219 8.691406 51.925781 8.746094 Z M 43.953125 7.589844 L 43.953125 9.824219 C 43.953125 9.902344 44.507812 9.96875 45.292969 9.996094 L 45.292969 10.355469 L 46.894531 10.355469 L 46.894531 9.996094 C 47.679688 9.96875 48.234375 9.902344 48.234375 9.824219 L 48.234375 7.589844 L 48.230469 7.589844 C 48.152344 7.492188 47.222656 7.410156 46.09375 7.410156 C 44.964844 7.410156 44.039062 7.492188 43.957031 7.589844 Z M 43.953125 7.589844 " fill-opacity="1" fill-rule="evenodd"/></g><path fill="#291b25" d="M 54.546875 21.796875 C 54.625 17.523438 51.589844 13.988281 47.527344 13.21875 L 48.917969 12.449219 L 47.945312 11.863281 C 52.597656 12.820312 56.046875 16.902344 55.957031 21.820312 Z M 54.546875 21.796875 " fill-opacity="1" fill-rule="evenodd"/><path fill="#291b25" d="M 38.039062 20.492188 L 38.0625 20.339844 L 38.609375 20.429688 L 38.585938 20.582031 Z M 38.039062 20.492188 " fill-opacity="1" fill-rule="evenodd"/><path fill="#291b25" d="M 53.210938 22.988281 L 53.234375 22.839844 L 53.785156 22.925781 L 53.757812 23.078125 Z M 53.210938 22.988281 " fill-opacity="1" fill-rule="evenodd"/><path fill="#291b25" d="M 38.582031 18.582031 L 38.644531 18.441406 L 39.15625 18.660156 L 39.09375 18.804688 Z M 38.582031 18.582031 " fill-opacity="1" fill-rule="evenodd"/><path fill="#291b25" d="M 52.664062 24.757812 L 52.726562 24.613281 L 53.238281 24.835938 L 53.175781 24.980469 Z M 52.664062 24.757812 " fill-opacity="1" fill-rule="evenodd"/><path fill="#291b25" d="M 39.6875 16.734375 L 39.785156 16.617188 L 40.214844 16.964844 L 40.117188 17.085938 Z M 39.6875 16.734375 " fill-opacity="1" fill-rule="evenodd"/><path fill="#291b25" d="M 51.605469 26.453125 L 51.703125 26.332031 L 52.132812 26.683594 L 52.035156 26.804688 Z M 51.605469 26.453125 " fill-opacity="1" fill-rule="evenodd"/><path fill="#291b25" d="M 41.160156 15.3125 L 41.285156 15.222656 L 41.613281 15.667969 L 41.488281 15.761719 Z M 41.160156 15.3125 " fill-opacity="1" fill-rule="evenodd"/><path fill="#291b25" d="M 50.207031 27.746094 L 50.332031 27.65625 L 50.65625 28.105469 L 50.535156 28.195312 Z M 50.207031 27.746094 " fill-opacity="1" fill-rule="evenodd"/><path fill="#291b25" d="M 42.960938 14.308594 L 43.160156 14.828125 L 43.304688 14.769531 L 43.105469 14.253906 Z M 42.960938 14.308594 " fill-opacity="1" fill-rule="evenodd"/><path fill="#291b25" d="M 48.515625 28.644531 L 48.660156 28.589844 L 48.859375 29.109375 L 48.71875 29.164062 Z M 48.515625 28.644531 " fill-opacity="1" fill-rule="evenodd"/><path fill="#291b25" d="M 44.824219 13.816406 L 44.976562 13.796875 L 45.046875 14.347656 L 44.894531 14.367188 Z M 44.824219 13.816406 " fill-opacity="1" fill-rule="evenodd"/><path fill="#291b25" d="M 46.773438 29.070312 L 46.925781 29.050781 L 46.996094 29.601562 L 46.84375 29.621094 Z M 46.773438 29.070312 " fill-opacity="1" fill-rule="evenodd"/><path fill="#291b25" d="M 47.09375 13.832031 L 47.246094 13.855469 L 47.15625 14.402344 L 47.007812 14.378906 Z M 47.09375 13.832031 " fill-opacity="1" fill-rule="evenodd"/><path fill="#291b25" d="M 44.664062 29.011719 L 44.816406 29.039062 L 44.726562 29.585938 L 44.574219 29.5625 Z M 44.664062 29.011719 " fill-opacity="1" fill-rule="evenodd"/><path fill="#291b25" d="M 49 14.367188 L 48.777344 14.875 L 48.917969 14.9375 L 49.140625 14.425781 Z M 49 14.367188 " fill-opacity="1" fill-rule="evenodd"/><path fill="#291b25" d="M 42.902344 28.480469 L 43.042969 28.542969 L 42.824219 29.054688 L 42.679688 28.992188 Z M 42.902344 28.480469 " fill-opacity="1" fill-rule="evenodd"/><path fill="#291b25" d="M 50.792969 15.414062 L 50.449219 15.847656 L 50.566406 15.945312 L 50.910156 15.507812 Z M 50.792969 15.414062 " fill-opacity="1" fill-rule="evenodd"/><path fill="#291b25" d="M 41.253906 27.472656 L 41.375 27.570312 L 41.027344 28.003906 L 40.910156 27.910156 Z M 41.253906 27.472656 " fill-opacity="1" fill-rule="evenodd"/><path fill="#291b25" d="M 53.257812 18.625 L 52.742188 18.835938 L 52.800781 18.980469 L 53.3125 18.769531 Z M 53.257812 18.625 " fill-opacity="1" fill-rule="evenodd"/><path fill="#291b25" d="M 39.019531 24.441406 L 39.078125 24.582031 L 38.5625 24.792969 L 38.507812 24.648438 Z M 39.019531 24.441406 " fill-opacity="1" fill-rule="evenodd"/><path fill="#291b25" d="M 52.269531 16.910156 L 51.820312 17.238281 L 51.914062 17.363281 L 52.359375 17.03125 Z M 52.269531 16.910156 " fill-opacity="1" fill-rule="evenodd"/><path fill="#291b25" d="M 39.90625 26.054688 L 40 26.179688 L 39.550781 26.507812 L 39.460938 26.386719 Z M 39.90625 26.054688 " fill-opacity="1" fill-rule="evenodd"/><path fill="#291b25" d="M 53.808594 20.652344 L 53.253906 20.71875 L 53.273438 20.871094 L 53.824219 20.804688 Z M 53.808594 20.652344 " fill-opacity="1" fill-rule="evenodd"/><path fill="#291b25" d="M 38.546875 22.546875 L 38.566406 22.699219 L 38.015625 22.765625 L 37.996094 22.613281 Z M 38.546875 22.546875 " fill-opacity="1" fill-rule="evenodd"/><path fill="#291b25" d="M 43.785156 28.808594 L 43.933594 28.851562 L 43.78125 29.386719 L 43.632812 29.34375 Z M 43.785156 28.808594 " fill-opacity="1" fill-rule="evenodd"/><path fill="#291b25" d="M 51.59375 16.125 L 51.191406 16.511719 L 51.300781 16.621094 L 51.699219 16.234375 Z M 51.59375 16.125 " fill-opacity="1" fill-rule="evenodd"/><path fill="#291b25" d="M 53.625 19.714844 L 53.082031 19.847656 L 53.121094 20 L 53.660156 19.863281 Z M 53.625 19.714844 " fill-opacity="1" fill-rule="evenodd"/><path fill="#291b25" d="M 38.699219 23.421875 L 38.734375 23.570312 L 38.195312 23.703125 L 38.160156 23.554688 Z M 38.699219 23.421875 " fill-opacity="1" fill-rule="evenodd"/><path fill="#291b25" d="M 53.585938 23.835938 L 53.542969 23.984375 L 53.011719 23.832031 L 53.050781 23.683594 Z M 53.585938 23.835938 " fill-opacity="1" fill-rule="evenodd"/><path fill="#291b25" d="M 51.492188 27.390625 L 51.382812 27.496094 L 50.996094 27.097656 L 51.109375 26.992188 Z M 51.492188 27.390625 " fill-opacity="1" fill-rule="evenodd"/><path fill="#291b25" d="M 47.90625 29.421875 L 47.753906 29.460938 L 47.621094 28.921875 L 47.769531 28.882812 Z M 47.90625 29.421875 " fill-opacity="1" fill-rule="evenodd"/><path fill="#291b25" d="M 48.039062 14.03125 L 47.886719 14.566406 L 48.035156 14.609375 L 48.1875 14.074219 Z M 48.039062 14.03125 " fill-opacity="1" fill-rule="evenodd"/><path fill="#291b25" d="M 40.519531 26.796875 L 40.628906 26.90625 L 40.226562 27.292969 L 40.121094 27.183594 Z M 40.519531 26.796875 " fill-opacity="1" fill-rule="evenodd"/><path fill="#291b25" d="M 38.808594 19.585938 L 38.769531 19.734375 L 38.234375 19.578125 L 38.277344 19.433594 Z M 38.808594 19.585938 " fill-opacity="1" fill-rule="evenodd"/><path fill="#291b25" d="M 40.824219 16.320312 L 40.710938 16.425781 L 40.328125 16.027344 L 40.4375 15.921875 Z M 40.824219 16.320312 " fill-opacity="1" fill-rule="evenodd"/><path fill="#291b25" d="M 44.199219 14.496094 L 44.050781 14.535156 L 43.914062 13.996094 L 44.066406 13.957031 Z M 44.199219 14.496094 " fill-opacity="1" fill-rule="evenodd"/><path fill="#291b25" d="M 52.34375 22.261719 L 53.867188 22.292969 L 53.882812 21.421875 L 52.359375 21.390625 Z M 52.34375 22.261719 " fill-opacity="1" fill-rule="evenodd"/><path fill="#291b25" d="M 46.199219 29.683594 L 45.328125 29.664062 L 45.359375 28.144531 L 46.226562 28.160156 Z M 46.199219 29.683594 " fill-opacity="1" fill-rule="evenodd"/><path fill="#291b25" d="M 37.9375 21.996094 L 37.953125 21.125 L 39.476562 21.15625 L 39.460938 22.023438 Z M 37.9375 21.996094 " fill-opacity="1" fill-rule="evenodd"/><path fill="#291b25" d="M 46.464844 15.277344 L 46.492188 13.753906 L 45.808594 13.738281 L 46.917969 13.125 L 48.226562 12.398438 L 45.664062 10.859375 L 45.652344 11.660156 C 44.996094 11.675781 44.359375 11.753906 43.738281 11.890625 L 44.082031 13.261719 C 44.578125 13.152344 45.097656 13.089844 45.625 13.070312 L 45.613281 13.847656 L 45.621094 13.84375 L 45.597656 15.257812 Z M 46.464844 15.277344 " fill-opacity="1" fill-rule="evenodd"/><path fill="#291b25" d="M 52.925781 17.9375 L 52.835938 17.773438 L 52.035156 18.214844 L 52.128906 18.375 Z M 52.925781 17.9375 " fill-opacity="1" fill-rule="evenodd"/><path fill="#291b25" d="M 51.902344 25.425781 L 52 25.265625 L 52.78125 25.738281 L 52.6875 25.898438 Z M 51.902344 25.425781 " fill-opacity="1" fill-rule="evenodd"/><path fill="#291b25" d="M 42.351562 27.800781 L 42.191406 27.703125 L 41.71875 28.484375 L 41.878906 28.582031 Z M 42.351562 27.800781 " fill-opacity="1" fill-rule="evenodd"/><path fill="#291b25" d="M 49.242188 27.925781 L 49.40625 27.835938 L 49.847656 28.636719 L 49.683594 28.726562 Z M 49.242188 27.925781 " fill-opacity="1" fill-rule="evenodd"/><path fill="#291b25" d="M 39.785156 25.203125 L 39.691406 25.039062 L 38.894531 25.480469 L 38.984375 25.644531 Z M 39.785156 25.203125 " fill-opacity="1" fill-rule="evenodd"/><path fill="#291b25" d="M 39.039062 17.679688 L 39.132812 17.519531 L 39.917969 17.988281 L 39.820312 18.152344 Z M 39.039062 17.679688 " fill-opacity="1" fill-rule="evenodd"/><path fill="#291b25" d="M 50.101562 14.933594 L 49.941406 14.835938 L 49.46875 15.621094 L 49.628906 15.714844 Z M 50.101562 14.933594 " fill-opacity="1" fill-rule="evenodd"/><path fill="#291b25" d="M 55.953125 22.152344 C 55.921875 22.871094 55.816406 23.570312 55.644531 24.242188 L 54.285156 23.851562 C 54.425781 23.296875 54.515625 22.71875 54.542969 22.125 Z M 55.953125 22.152344 " fill-opacity="1" fill-rule="evenodd"/><path fill="#291b25" d="M 55.5 24.738281 C 55.285156 25.417969 55 26.066406 54.652344 26.671875 L 53.441406 25.941406 C 53.726562 25.4375 53.960938 24.90625 54.140625 24.347656 Z M 55.5 24.738281 " fill-opacity="1" fill-rule="evenodd"/><path fill="#291b25" d="M 54.386719 27.117188 L 53.175781 26.386719 C 52.859375 26.878906 52.496094 27.332031 52.089844 27.75 L 53.070312 28.765625 C 53.5625 28.265625 54.003906 27.710938 54.386719 27.117188 Z M 54.386719 27.117188 " fill-opacity="1" fill-rule="evenodd"/><path fill="#291b25" d="M 52.699219 29.125 L 51.71875 28.105469 C 51.289062 28.496094 50.820312 28.84375 50.316406 29.144531 L 51 30.378906 C 51.609375 30.019531 52.179688 29.597656 52.699219 29.121094 Z M 52.699219 29.125 " fill-opacity="1" fill-rule="evenodd"/><g clip-path="url(#bf487c7204)"><path fill="#291b25" d="M 50.546875 30.628906 C 49.929688 30.953125 49.269531 31.214844 48.582031 31.402344 L 48.242188 30.03125 C 48.808594 29.875 49.351562 29.660156 49.863281 29.394531 Z M 50.546875 30.628906 " fill-opacity="1" fill-rule="evenodd"/></g><g clip-path="url(#7b227e5265)"><path fill="#291b25" d="M 48.082031 31.527344 C 47.402344 31.675781 46.703125 31.757812 45.984375 31.761719 L 46.011719 30.347656 C 46.601562 30.339844 47.179688 30.273438 47.742188 30.15625 Z M 48.082031 31.527344 " fill-opacity="1" fill-rule="evenodd"/></g><g clip-path="url(#79816bec43)"><path fill="#291b25" d="M 45.46875 31.753906 C 44.75 31.722656 44.050781 31.613281 43.378906 31.441406 L 43.769531 30.082031 C 44.324219 30.226562 44.898438 30.3125 45.492188 30.339844 L 45.464844 31.753906 Z M 45.46875 31.753906 " fill-opacity="1" fill-rule="evenodd"/></g><g clip-path="url(#9e1669056d)"><path fill="#291b25" d="M 42.882812 31.296875 C 42.203125 31.082031 41.554688 30.800781 40.945312 30.453125 L 41.675781 29.246094 C 42.179688 29.527344 42.714844 29.761719 43.273438 29.941406 L 42.882812 31.300781 Z M 42.882812 31.296875 " fill-opacity="1" fill-rule="evenodd"/></g><path fill="#291b25" d="M 40.503906 30.1875 L 41.234375 28.976562 C 40.742188 28.660156 40.289062 28.296875 39.871094 27.886719 L 38.855469 28.867188 C 39.355469 29.363281 39.910156 29.804688 40.507812 30.183594 Z M 40.503906 30.1875 " fill-opacity="1" fill-rule="evenodd"/><path fill="#291b25" d="M 38.496094 28.496094 L 39.511719 27.515625 C 39.121094 27.085938 38.773438 26.617188 38.476562 26.113281 L 37.242188 26.796875 C 37.601562 27.40625 38.019531 27.976562 38.496094 28.496094 Z M 38.496094 28.496094 " fill-opacity="1" fill-rule="evenodd"/><path fill="#291b25" d="M 36.992188 26.347656 C 36.667969 25.726562 36.40625 25.070312 36.21875 24.382812 L 37.585938 24.042969 C 37.746094 24.609375 37.960938 25.152344 38.226562 25.664062 L 36.988281 26.347656 Z M 36.992188 26.347656 " fill-opacity="1" fill-rule="evenodd"/><path fill="#291b25" d="M 36.09375 23.878906 C 35.945312 23.203125 35.863281 22.5 35.855469 21.78125 L 37.269531 21.808594 C 37.277344 22.402344 37.34375 22.980469 37.460938 23.539062 L 36.089844 23.878906 Z M 36.09375 23.878906 " fill-opacity="1" fill-rule="evenodd"/><path fill="#291b25" d="M 35.867188 21.265625 C 35.898438 20.546875 36.003906 19.847656 36.175781 19.175781 L 37.535156 19.566406 C 37.394531 20.121094 37.304688 20.695312 37.277344 21.289062 Z M 35.867188 21.265625 " fill-opacity="1" fill-rule="evenodd"/><path fill="#291b25" d="M 36.320312 18.679688 C 36.535156 18 36.820312 17.351562 37.167969 16.746094 L 38.375 17.472656 C 38.09375 17.976562 37.859375 18.511719 37.679688 19.070312 Z M 36.320312 18.679688 " fill-opacity="1" fill-rule="evenodd"/><path fill="#291b25" d="M 37.433594 16.300781 L 38.644531 17.03125 C 38.960938 16.539062 39.324219 16.085938 39.730469 15.667969 L 38.753906 14.652344 C 38.257812 15.152344 37.816406 15.707031 37.433594 16.300781 Z M 37.433594 16.300781 " fill-opacity="1" fill-rule="evenodd"/><path fill="#291b25" d="M 39.121094 14.292969 L 40.101562 15.308594 C 40.53125 14.917969 41.003906 14.570312 41.503906 14.273438 L 40.820312 13.039062 C 40.210938 13.394531 39.640625 13.816406 39.121094 14.292969 Z M 39.121094 14.292969 " fill-opacity="1" fill-rule="evenodd"/><path fill="#291b25" d="M 41.273438 12.789062 C 41.894531 12.464844 42.550781 12.203125 43.238281 12.015625 L 43.578125 13.386719 C 43.011719 13.542969 42.46875 13.761719 41.957031 14.023438 L 41.273438 12.785156 Z M 41.273438 12.789062 " fill-opacity="1" fill-rule="evenodd"/><path fill="#291b25" d="M 42.597656 18.800781 L 42.625 18.773438 L 45.070312 20.65625 C 45.222656 20.570312 45.390625 20.527344 45.558594 20.523438 L 47.050781 15.601562 L 47.089844 15.609375 L 46.234375 20.757812 C 46.25 20.773438 46.269531 20.789062 46.289062 20.804688 C 46.707031 21.199219 46.730469 21.859375 46.335938 22.277344 C 46.226562 22.394531 46.097656 22.480469 45.953125 22.535156 L 47.464844 27.523438 L 47.226562 27.59375 L 45.710938 22.597656 C 45.414062 22.636719 45.101562 22.546875 44.863281 22.324219 C 44.527344 22.007812 44.449219 21.519531 44.636719 21.121094 Z M 42.597656 18.800781 " fill-opacity="1" fill-rule="evenodd"/><path fill="#ed5b2d" d="M 30.460938 24.179688 L 34.210938 24.179688 C 34.6875 24.179688 35.121094 24.566406 35.179688 25.042969 C 35.238281 25.511719 34.902344 25.898438 34.425781 25.898438 L 25.609375 25.898438 C 25.1875 25.898438 24.890625 26.238281 24.945312 26.65625 C 24.996094 27.078125 25.378906 27.417969 25.796875 27.417969 L 30.4375 27.417969 L 30.457031 29.054688 L 38.203125 29.054688 L 38.015625 28.867188 L 38.027344 28.855469 C 37.546875 28.328125 37.125 27.753906 36.757812 27.144531 L 36.746094 27.148438 L 36.601562 26.871094 L 36.429688 26.582031 L 36.441406 26.570312 C 36.117188 25.9375 35.855469 25.273438 35.664062 24.589844 L 35.648438 24.59375 L 35.574219 24.269531 L 35.488281 23.960938 L 35.503906 23.957031 C 35.355469 23.261719 35.277344 22.554688 35.265625 21.839844 L 35.25 21.839844 L 35.265625 21.515625 L 35.265625 21.414062 L 31.339844 21.441406 L 30.457031 21.445312 L 27.730469 21.464844 C 27.3125 21.464844 27.015625 21.800781 27.066406 22.222656 C 27.117188 22.644531 27.5 22.984375 27.917969 22.984375 L 30.375 22.984375 L 30.390625 24.183594 L 30.453125 24.183594 Z M 30.460938 24.179688 " fill-opacity="1" fill-rule="evenodd"/><path fill="#ed5b2d" d="M 31.25 19.636719 L 35.476562 19.636719 C 35.511719 19.449219 35.554688 19.265625 35.601562 19.082031 L 35.585938 19.074219 L 35.683594 18.761719 L 35.761719 18.449219 L 35.78125 18.453125 C 35.925781 17.996094 36.105469 17.550781 36.3125 17.117188 L 29.234375 17.117188 C 28.8125 17.117188 28.519531 17.457031 28.570312 17.875 C 28.625 18.296875 29.003906 18.636719 29.425781 18.636719 L 30.320312 18.636719 L 30.332031 19.636719 Z M 31.25 19.636719 " fill-opacity="1" fill-rule="evenodd"/><path fill="#ed5b2d" d="M 31.484375 15.359375 L 37.375 15.359375 C 37.660156 14.976562 37.96875 14.617188 38.296875 14.28125 L 38.285156 14.265625 L 38.523438 14.050781 L 38.753906 13.8125 L 38.769531 13.824219 C 38.941406 13.667969 39.121094 13.519531 39.304688 13.371094 L 31.253906 13.371094 C 30.929688 13.371094 30.644531 13.527344 30.464844 13.769531 L 30.460938 15.359375 Z M 31.484375 15.359375 " fill-opacity="1" fill-rule="evenodd"/><path fill="#ed5b2d" d="M 52.546875 13.371094 C 53.273438 13.949219 53.921875 14.617188 54.472656 15.359375 L 61.355469 15.359375 L 61.351562 13.769531 C 61.175781 13.527344 60.890625 13.371094 60.5625 13.371094 Z M 52.546875 13.371094 " fill-opacity="1" fill-rule="evenodd"/><path fill="#ed5b2d" d="M 60.699219 17.117188 L 55.53125 17.117188 C 55.90625 17.910156 56.1875 18.753906 56.355469 19.632812 L 61.484375 19.632812 L 61.496094 18.636719 L 62.390625 18.636719 C 62.8125 18.636719 63.191406 18.296875 63.242188 17.875 C 63.296875 17.453125 63 17.117188 62.582031 17.117188 Z M 60.699219 17.117188 " fill-opacity="1" fill-rule="evenodd"/><path fill="#ed5b2d" d="M 60.472656 21.4375 L 56.542969 21.414062 C 56.542969 21.46875 56.542969 21.523438 56.542969 21.578125 L 56.5625 21.578125 L 56.539062 22.175781 L 56.535156 22.210938 L 56.53125 22.414062 L 56.523438 22.414062 C 56.480469 23.0625 56.382812 23.703125 56.21875 24.335938 L 56.234375 24.339844 L 56.136719 24.65625 L 56.058594 24.96875 L 56.039062 24.960938 C 55.824219 25.640625 55.539062 26.292969 55.1875 26.914062 L 55.203125 26.925781 L 55.023438 27.207031 L 54.867188 27.480469 L 54.851562 27.472656 C 54.488281 28.039062 54.070312 28.566406 53.605469 29.050781 L 61.355469 29.050781 L 61.375 27.414062 L 66.015625 27.414062 C 66.4375 27.414062 66.816406 27.078125 66.871094 26.65625 C 66.921875 26.234375 66.625 25.894531 66.203125 25.894531 L 57.386719 25.894531 C 56.910156 25.894531 56.574219 25.511719 56.632812 25.039062 C 56.691406 24.5625 57.125 24.179688 57.601562 24.179688 L 61.417969 24.179688 L 61.433594 22.976562 L 63.886719 22.976562 C 64.308594 22.976562 64.6875 22.640625 64.742188 22.21875 C 64.792969 21.796875 64.5 21.457031 64.078125 21.457031 L 61.351562 21.441406 L 60.46875 21.433594 Z M 60.472656 21.4375 " fill-opacity="1" fill-rule="evenodd"/></svg>